<?xml version="1.0" standalone="no"?>
<!DOCTYPE svg PUBLIC "-//W3C//DTD SVG 20010904//EN"
 "http://www.w3.org/TR/2001/REC-SVG-20010904/DTD/svg10.dtd">
<svg version="1.0" xmlns="http://www.w3.org/2000/svg"
 width="900.000000pt" height="559.000000pt" viewBox="0 0 900.000000 559.000000"
 preserveAspectRatio="xMidYMid meet">

<g transform="translate(0.000000,559.000000) scale(0.100000,-0.100000)"
fill="#000000" stroke="none">
<path d="M0 2795 l0 -2795 4500 0 4500 0 0 984 0 985 -47 6 c-27 4 -62 11 -79
16 -35 11 -80 -4 -101 -32 -7 -9 -30 -19 -51 -23 -22 -3 -45 -13 -52 -21 -7
-8 -23 -15 -36 -15 -12 0 -29 -6 -37 -14 -8 -8 -31 -23 -53 -33 -22 -10 -40
-27 -43 -38 -2 -11 -15 -30 -30 -42 -14 -13 -21 -23 -16 -23 10 -1 -47 -35
-77 -46 -10 -3 -18 -12 -18 -19 0 -17 -23 -25 -49 -18 -13 3 -23 0 -27 -10 -3
-8 -20 -18 -37 -21 -18 -3 -45 -17 -61 -31 -23 -20 -32 -22 -39 -13 -7 10 -10
10 -14 1 -6 -16 -33 -17 -33 -2 0 6 -7 8 -16 5 -8 -3 -25 -1 -37 5 -16 9 -22
9 -25 0 -5 -16 -22 -14 -22 3 0 16 -66 20 -76 4 -8 -12 -33 22 -34 45 0 9 7
17 16 17 13 0 15 7 9 37 -4 21 -12 54 -18 74 -11 36 -12 37 -62 37 -27 0 -74
-4 -103 -10 -47 -8 -54 -13 -67 -45 -8 -19 -15 -54 -16 -77 -1 -70 -13 -121
-29 -121 -10 0 -16 -12 -18 -32 -2 -20 -9 -33 -20 -35 -25 -6 -139 17 -155 31
-12 9 -16 6 -21 -23 -6 -29 -11 -35 -41 -40 -43 -8 -61 0 -44 20 7 8 21 11 34
8 18 -4 23 -1 28 21 2 15 -2 39 -9 54 -8 14 -14 19 -14 11 0 -11 -3 -11 -12
-2 -16 16 -51 16 -42 -1 6 -9 4 -9 -7 1 -7 6 -22 12 -33 12 -13 0 -31 15 -46
36 -61 87 -139 164 -167 164 -12 0 -26 6 -30 14 -4 8 -30 16 -58 19 -27 3 -67
9 -87 13 -25 4 -38 2 -38 -5 0 -6 -7 -11 -15 -11 -8 0 -15 -4 -15 -8 0 -5 -25
-15 -55 -22 -37 -9 -57 -19 -60 -32 -4 -10 -13 -18 -22 -18 -19 0 -42 -28 -43
-51 0 -20 -30 -27 -145 -34 -43 -3 -82 -10 -86 -16 -3 -6 -25 -13 -48 -16 -25
-4 -41 -11 -41 -19 0 -8 -4 -14 -10 -14 -5 0 -10 -16 -10 -35 0 -19 -4 -35 -8
-35 -5 0 -14 -11 -20 -24 -15 -33 -81 -47 -211 -46 -73 1 -113 6 -129 16 -12
8 -27 12 -32 9 -6 -3 -10 -1 -10 4 0 6 -8 11 -17 11 -15 0 -16 -2 -3 -10 10
-7 11 -10 2 -10 -7 0 -15 7 -18 15 -5 11 -21 15 -61 15 -30 0 -62 4 -72 10
-10 5 -40 11 -67 13 -84 8 -138 20 -152 34 -15 14 -132 19 -132 4 0 -4 -27
-14 -60 -21 -60 -13 -80 -29 -37 -31 21 -1 21 -1 -3 -9 -14 -4 -42 -8 -62 -9
-26 -1 -38 -6 -38 -15 0 -10 -14 -16 -42 -19 l-43 -4 43 -1 c27 -1 42 -7 42
-15 0 -9 -20 -13 -77 -12 -52 0 -78 -4 -80 -12 -5 -15 -43 -18 -43 -4 0 6 -74
9 -182 9 -193 -1 -369 9 -378 23 -3 4 -37 11 -75 14 -39 4 -79 10 -90 15 -50
21 -117 27 -313 29 -116 1 -226 6 -244 12 -18 5 -79 9 -135 9 -62 0 -103 4
-103 10 0 6 -11 10 -25 10 -15 0 -38 6 -54 14 -15 8 -55 18 -89 22 -34 3 -62
10 -62 14 0 4 -11 5 -25 2 -18 -3 -25 0 -25 11 0 15 -70 26 -166 27 -17 0 -42
9 -54 20 -25 21 -94 28 -105 10 -8 -13 -132 -13 -140 0 -3 6 -14 10 -24 10
-10 0 -47 9 -81 20 -34 11 -92 21 -129 21 -36 1 -56 4 -43 6 37 7 25 20 -25
26 -27 3 -95 10 -153 17 -58 6 -117 15 -132 20 -19 6 -28 5 -28 -2 0 -6 -8 -7
-17 -3 -21 8 -31 10 -95 19 -45 7 -88 33 -88 54 0 5 -21 13 -47 16 -27 3 -59
8 -73 10 -14 2 -33 4 -42 5 -10 0 -18 8 -18 16 0 8 -9 15 -20 15 -11 0 -20 4
-20 9 0 5 -22 11 -50 15 -27 4 -50 11 -50 16 0 6 -9 10 -20 10 -11 0 -20 4
-20 9 0 10 -56 25 -82 23 -10 -1 -18 5 -18 13 0 8 -1 15 -2 15 -2 0 -44 4 -93
9 -84 8 -165 34 -165 53 0 4 -15 8 -32 8 -18 0 -58 7 -88 15 -30 8 -69 15 -87
15 -17 0 -34 6 -36 13 -4 9 -8 8 -16 -3 -8 -11 -13 -12 -18 -4 -5 7 -34 17
-65 24 -32 7 -58 17 -58 22 0 4 -9 8 -20 8 -11 0 -20 4 -20 9 0 4 -25 11 -56
14 -39 4 -61 12 -73 26 -10 12 -24 21 -30 21 -15 0 -41 25 -41 40 0 6 -14 13
-30 17 -21 4 -30 11 -30 24 0 11 -4 19 -10 19 -5 0 -10 18 -10 40 0 22 -4 40
-10 40 -5 0 -10 9 -10 20 0 13 -7 20 -20 20 -13 0 -20 7 -20 20 0 11 -4 20
-10 20 -5 0 -10 9 -10 20 0 11 -4 20 -10 20 -5 0 -10 9 -10 20 0 13 -7 20 -20
20 -11 0 -20 5 -20 11 0 16 -26 39 -44 39 -9 0 -16 5 -16 10 0 6 -9 10 -19 10
-13 0 -23 11 -30 33 -6 18 -20 39 -31 47 -14 10 -20 26 -20 52 0 31 -4 38 -20
38 -13 0 -20 7 -20 20 0 11 -4 20 -10 20 -6 0 -10 33 -10 80 0 47 4 80 10 80
6 0 10 37 10 90 0 53 4 90 10 90 6 0 10 7 10 16 0 8 -5 12 -10 9 -23 -14 -7
29 20 55 17 15 30 35 30 44 0 9 5 16 10 16 6 0 10 9 10 20 0 11 -4 20 -10 20
-5 0 -10 5 -10 10 0 6 9 10 20 10 15 0 20 7 20 26 0 17 16 41 50 74 27 27 50
56 50 64 0 9 5 16 10 16 6 0 10 9 10 20 0 13 7 20 20 20 17 0 20 7 20 40 0 33
3 40 20 40 13 0 20 7 20 20 0 13 7 20 20 20 13 0 20 7 20 20 0 13 7 20 20 20
11 0 20 5 20 10 0 6 9 10 20 10 13 0 20 7 20 20 0 13 7 20 20 20 16 0 20 7 20
30 0 23 4 30 20 30 13 0 20 7 20 20 0 11 5 20 10 20 6 0 10 9 10 20 0 11 5 20
10 20 6 0 10 -9 10 -20 0 -11 5 -20 10 -20 6 0 10 9 10 20 0 11 -4 20 -10 20
-5 0 -10 9 -10 20 0 11 5 20 10 20 6 0 10 9 10 20 0 13 7 20 20 20 11 0 20 7
20 16 0 8 27 42 60 74 33 32 60 64 60 70 0 14 46 60 60 60 16 0 100 87 100
105 0 8 6 15 13 15 23 0 67 25 67 38 0 18 66 82 85 82 8 0 15 5 15 10 0 6 7
10 16 10 8 0 37 23 64 50 27 28 56 50 64 50 9 0 16 9 16 20 0 13 7 20 20 20
11 0 20 5 20 10 0 6 7 10 16 10 9 0 26 10 37 23 13 15 21 18 24 10 5 -15 43
-17 43 -3 0 6 -4 10 -10 10 -5 0 -10 5 -10 10 0 6 14 10 30 10 23 0 30 4 30
20 0 13 7 20 20 20 11 0 20 5 20 10 0 6 9 10 20 10 13 0 20 7 20 20 0 13 7 20
20 20 11 0 20 5 20 10 0 6 9 10 20 10 13 0 20 7 20 20 0 18 7 20 58 20 46 0
60 4 72 20 8 12 26 20 42 20 15 0 28 5 28 10 0 6 9 10 20 10 11 0 20 5 20 10
0 6 27 10 60 10 53 0 60 2 60 20 0 17 7 20 40 20 33 0 40 3 40 20 0 13 7 20
20 20 11 0 20 5 20 10 0 6 9 10 20 10 13 0 20 7 20 20 0 18 7 20 60 20 53 0
60 2 60 20 0 13 7 20 20 20 13 0 20 7 20 20 0 13 7 20 20 20 11 0 20 -4 20
-10 0 -5 9 -10 20 -10 13 0 20 7 20 20 0 17 7 20 40 20 22 0 40 5 40 10 0 6 9
10 20 10 13 0 20 7 20 20 0 18 7 20 60 20 53 0 60 2 60 20 0 13 7 20 20 20 11
0 20 5 20 10 0 6 9 10 20 10 11 0 20 5 20 10 0 6 18 10 40 10 33 0 40 3 40 20
0 13 7 20 20 20 13 0 20 7 20 20 0 17 7 20 40 20 22 0 40 5 40 10 0 6 33 10
80 10 73 0 80 2 80 20 0 17 7 20 40 20 22 0 40 5 40 10 0 6 18 10 40 10 33 0
40 3 40 20 0 20 -7 20 -1640 20 l-1640 0 0 -2795z m7290 -1246 c0 -11 -4 -17
-10 -14 -5 3 -10 1 -10 -4 0 -6 -7 -11 -15 -11 -8 0 -15 7 -15 15 0 8 9 15 20
15 11 0 20 5 20 10 0 6 2 10 5 10 3 0 5 -9 5 -21z m666 -31 l29 -33 -32 29
c-18 17 -33 31 -33 33 0 8 8 1 36 -29z m-726 2 c0 -5 -4 -10 -10 -10 -5 0 -10
5 -10 10 0 6 5 10 10 10 6 0 10 -4 10 -10z m437 -47 c-4 -17 -4 -17 -12 0 -4
9 -4 25 0 35 8 16 8 16 12 0 3 -10 3 -26 0 -35z m-2753 -81 c2 -4 -4 -8 -14
-8 -10 0 -16 4 -14 8 3 4 9 8 14 8 5 0 11 -4 14 -8z m109 -9 c-13 -2 -33 -2
-45 0 -13 2 -3 4 22 4 25 0 35 -2 23 -4z"/>
<path d="M2555 3796 c-62 -27 -61 -15 -35 -366 13 -176 21 -322 18 -325 -9
-10 -1557 130 -1613 146 -60 16 -122 60 -210 148 -43 44 -83 77 -87 75 -5 -3
-6 -11 -2 -17 3 -7 -4 -1 -15 12 -12 12 -18 27 -15 32 3 5 -2 9 -10 9 -9 0
-16 -4 -16 -8 0 -11 110 -189 172 -279 41 -59 57 -75 87 -82 57 -15 880 -162
1066 -191 111 -17 106 -12 72 -80 -17 -33 -27 -63 -23 -67 13 -13 145 39 173
68 16 16 39 29 54 29 25 0 140 -20 147 -26 2 -1 -3 -15 -11 -31 -18 -32 -39
-95 -34 -100 11 -10 133 44 163 73 34 31 38 33 80 25 25 -5 46 -10 48 -12 2
-2 6 -48 9 -101 5 -97 5 -98 -16 -94 -12 3 -62 8 -112 11 -49 3 -288 26 -530
51 -242 24 -520 52 -617 61 l-177 17 -57 -30 c-32 -17 -59 -35 -61 -40 -2 -6
77 -27 174 -47 98 -20 277 -57 398 -82 506 -106 762 -156 806 -157 l47 -1 5
-61 c4 -46 11 -65 27 -78 30 -24 114 -48 168 -48 24 0 66 -8 92 -17 45 -16 48
-16 86 4 21 11 62 23 91 27 29 3 87 16 130 27 68 17 87 18 148 9 39 -6 223
-33 410 -61 187 -27 367 -54 400 -60 l59 -11 38 44 c21 23 38 46 38 50 0 8 31
-1 -340 103 -369 104 -402 114 -395 125 3 5 11 7 18 4 8 -3 13 15 15 61 1 39
-2 65 -8 65 -5 0 -10 7 -10 15 0 9 9 15 25 15 13 0 29 8 34 18 10 16 10 16 11
0 0 -10 8 -18 18 -18 14 0 15 2 3 9 -10 6 1 8 30 4 65 -8 71 -13 54 -47 -8
-16 -15 -31 -15 -33 0 -6 78 4 141 18 34 8 93 6 225 -6 284 -25 274 -23 263
-52 -5 -13 -9 -42 -9 -63 0 -33 3 -37 19 -33 26 7 101 71 101 86 0 7 -4 6 -10
-3 -6 -9 -10 -10 -10 -3 0 6 5 15 12 19 21 13 110 4 157 -17 l47 -20 -4 -66
c-5 -72 -6 -72 56 -26 40 30 68 79 49 87 -17 8 95 -2 170 -16 59 -11 61 -12
52 -35 -11 -30 -12 -123 -1 -123 15 0 76 50 89 73 7 12 10 30 7 40 -4 11 0 17
11 17 9 0 199 -29 423 -65 338 -53 645 -99 797 -119 17 -2 38 1 47 6 17 8 200
276 214 311 14 37 -14 13 -66 -55 -79 -104 -116 -140 -137 -134 -10 3 -315 80
-678 172 -363 91 -680 171 -705 178 -38 9 -48 17 -63 51 -25 52 -44 73 -89 96
-54 28 -126 25 -172 -6 -20 -14 -41 -25 -46 -25 -22 0 -328 154 -352 177 -25
24 -31 25 -88 19 -34 -4 -67 -9 -73 -12 -9 -3 -12 8 -9 38 3 38 1 41 -11 26
-8 -10 -17 -15 -20 -11 -4 3 -8 -11 -8 -33 -1 -36 -2 -37 -8 -9 l-6 29 -20
-24 c-24 -30 -49 -33 -53 -5 -2 14 6 24 27 33 17 7 58 44 92 83 35 38 66 69
69 69 4 0 27 18 51 40 24 22 51 40 59 40 22 0 199 178 215 216 7 18 11 42 8
53 -15 59 -157 89 -269 56 -90 -25 -101 -32 -749 -460 -136 -90 -141 -92 -160
-75 -33 28 -57 37 -121 45 -45 5 -70 3 -99 -9 -20 -9 -39 -16 -41 -16 -2 0
-10 15 -18 33 l-14 32 5 -39 c4 -21 2 -37 -3 -35 -53 24 -84 45 -84 56 0 7 -9
13 -19 13 -14 0 -18 5 -14 19 3 13 -2 21 -16 26 -12 3 -21 13 -21 21 0 13 -24
19 -57 15 -8 -1 -13 11 -13 34 0 31 3 35 25 35 26 0 34 15 13 22 -9 3 -8 10 5
23 15 14 17 26 11 59 -3 22 -13 45 -21 49 -9 6 -14 25 -13 60 1 57 -20 195
-33 214 -4 7 -21 11 -38 10 -22 -1 -31 -8 -36 -26 -3 -13 -1 -26 4 -30 9 -5
25 -126 39 -286 2 -27 9 -71 14 -98 8 -40 7 -53 -9 -83 -24 -44 -27 -36 -36
100 -5 65 -4 96 3 92 11 -7 15 57 4 89 -5 17 -7 16 -12 -10 -4 -20 -8 0 -13
65 -4 52 -10 114 -13 137 -7 46 -13 41 81 77 39 14 39 15 10 15 -16 0 -44 -6
-60 -13z"/>
<path d="M2542 3675 c0 -16 2 -22 5 -12 2 9 2 23 0 30 -3 6 -5 -1 -5 -18z"/>
<path d="M4291 3413 c-6 -10 -11 -14 -11 -10 0 5 -20 -12 -45 -37 -25 -26 -45
-44 -45 -40 0 4 -9 -3 -20 -16 -11 -13 -20 -20 -20 -16 0 4 -7 1 -15 -8 -16
-16 -21 -66 -6 -66 5 0 23 12 39 28 17 15 58 52 91 82 41 36 61 62 61 77 0 27
-15 30 -29 6z"/>
<path d="M4056 3215 c-21 -19 -42 -35 -47 -35 -5 0 -9 -7 -9 -16 0 -8 -4 -12
-10 -9 -5 3 -10 -1 -10 -10 0 -9 -4 -13 -10 -10 -6 4 -10 -8 -10 -29 l0 -36
28 24 c61 55 75 66 84 66 4 0 8 7 8 16 0 8 5 12 10 9 6 -4 10 8 10 29 0 20 -1
36 -3 36 -2 0 -20 -16 -41 -35z"/>
</g>
</svg>
